<mxfile host="app.diagrams.net" modified="2023-03-26T09:46:43.864Z" agent="5.0 (Windows)" etag="l1WrdnKaGmcs5Vpvr5IR" version="21.0.8" type="github">
  <diagram name="Page-1" id="LFSzCcOkwn5fy_SzWpoG">
    <mxGraphModel dx="560" dy="821" grid="1" gridSize="10" guides="1" tooltips="1" connect="1" arrows="1" fold="1" page="1" pageScale="1" pageWidth="827" pageHeight="1169" math="0" shadow="0">
      <root>
        <mxCell id="0" />
        <mxCell id="1" parent="0" />
        <mxCell id="9-J86cphxurWLW8eX2XV-5" value="" style="edgeStyle=orthogonalEdgeStyle;rounded=0;orthogonalLoop=1;jettySize=auto;html=1;" edge="1" parent="1" source="9-J86cphxurWLW8eX2XV-1" target="9-J86cphxurWLW8eX2XV-2">
          <mxGeometry relative="1" as="geometry" />
        </mxCell>
        <mxCell id="9-J86cphxurWLW8eX2XV-1" value="&lt;div&gt;&lt;b&gt;Data pre-processing and feature extraction&lt;/b&gt;&lt;/div&gt;" style="rounded=1;whiteSpace=wrap;html=1;fillColor=#e1d5e7;strokeColor=#9673a6;" vertex="1" parent="1">
          <mxGeometry x="240" y="160" width="160" height="40" as="geometry" />
        </mxCell>
        <mxCell id="9-J86cphxurWLW8eX2XV-4" value="" style="edgeStyle=orthogonalEdgeStyle;rounded=0;orthogonalLoop=1;jettySize=auto;html=1;" edge="1" parent="1" source="9-J86cphxurWLW8eX2XV-2" target="9-J86cphxurWLW8eX2XV-3">
          <mxGeometry relative="1" as="geometry" />
        </mxCell>
        <mxCell id="9-J86cphxurWLW8eX2XV-2" value="&lt;b&gt;Novelty detection&lt;br&gt;&lt;/b&gt;" style="rounded=1;whiteSpace=wrap;html=1;fillColor=#fff2cc;strokeColor=#d6b656;" vertex="1" parent="1">
          <mxGeometry x="240" y="240" width="160" height="40" as="geometry" />
        </mxCell>
        <mxCell id="9-J86cphxurWLW8eX2XV-8" value="" style="edgeStyle=orthogonalEdgeStyle;rounded=0;orthogonalLoop=1;jettySize=auto;html=1;" edge="1" parent="1" source="9-J86cphxurWLW8eX2XV-3" target="9-J86cphxurWLW8eX2XV-7">
          <mxGeometry relative="1" as="geometry" />
        </mxCell>
        <mxCell id="9-J86cphxurWLW8eX2XV-19" style="edgeStyle=orthogonalEdgeStyle;rounded=0;orthogonalLoop=1;jettySize=auto;html=1;entryX=1;entryY=0.5;entryDx=0;entryDy=0;exitX=1;exitY=0.5;exitDx=0;exitDy=0;" edge="1" parent="1" source="9-J86cphxurWLW8eX2XV-3" target="9-J86cphxurWLW8eX2XV-2">
          <mxGeometry relative="1" as="geometry">
            <Array as="points">
              <mxPoint x="420" y="340" />
              <mxPoint x="420" y="260" />
            </Array>
          </mxGeometry>
        </mxCell>
        <mxCell id="9-J86cphxurWLW8eX2XV-3" value="&lt;b&gt;Novelty clustering and annotation&lt;br&gt;&lt;/b&gt;" style="rounded=1;whiteSpace=wrap;html=1;fillColor=#fff2cc;strokeColor=#d6b656;" vertex="1" parent="1">
          <mxGeometry x="240" y="320" width="160" height="40" as="geometry" />
        </mxCell>
        <mxCell id="9-J86cphxurWLW8eX2XV-11" value="" style="edgeStyle=orthogonalEdgeStyle;rounded=0;orthogonalLoop=1;jettySize=auto;html=1;" edge="1" parent="1" source="9-J86cphxurWLW8eX2XV-7" target="9-J86cphxurWLW8eX2XV-9">
          <mxGeometry relative="1" as="geometry" />
        </mxCell>
        <mxCell id="9-J86cphxurWLW8eX2XV-7" value="&lt;b&gt;Predict classifications&lt;br&gt;&lt;/b&gt;" style="rounded=1;whiteSpace=wrap;html=1;fillColor=#ffe6cc;strokeColor=#d79b00;" vertex="1" parent="1">
          <mxGeometry x="240" y="400" width="160" height="40" as="geometry" />
        </mxCell>
        <mxCell id="9-J86cphxurWLW8eX2XV-15" value="" style="edgeStyle=orthogonalEdgeStyle;rounded=0;orthogonalLoop=1;jettySize=auto;html=1;" edge="1" parent="1" source="9-J86cphxurWLW8eX2XV-9" target="9-J86cphxurWLW8eX2XV-14">
          <mxGeometry relative="1" as="geometry" />
        </mxCell>
        <mxCell id="9-J86cphxurWLW8eX2XV-20" style="edgeStyle=orthogonalEdgeStyle;rounded=0;orthogonalLoop=1;jettySize=auto;html=1;entryX=1;entryY=0.5;entryDx=0;entryDy=0;exitX=1;exitY=0.5;exitDx=0;exitDy=0;" edge="1" parent="1" source="9-J86cphxurWLW8eX2XV-9" target="9-J86cphxurWLW8eX2XV-7">
          <mxGeometry relative="1" as="geometry">
            <Array as="points">
              <mxPoint x="420" y="500" />
              <mxPoint x="420" y="420" />
            </Array>
          </mxGeometry>
        </mxCell>
        <mxCell id="9-J86cphxurWLW8eX2XV-9" value="&lt;b&gt;Uncertainty annotation&lt;br&gt;&lt;/b&gt;" style="rounded=1;whiteSpace=wrap;html=1;fillColor=#ffe6cc;strokeColor=#d79b00;" vertex="1" parent="1">
          <mxGeometry x="240" y="480" width="160" height="40" as="geometry" />
        </mxCell>
        <mxCell id="9-J86cphxurWLW8eX2XV-25" value="" style="edgeStyle=orthogonalEdgeStyle;rounded=0;orthogonalLoop=1;jettySize=auto;html=1;" edge="1" parent="1" source="9-J86cphxurWLW8eX2XV-14" target="9-J86cphxurWLW8eX2XV-16">
          <mxGeometry relative="1" as="geometry" />
        </mxCell>
        <mxCell id="9-J86cphxurWLW8eX2XV-14" value="&lt;b&gt;Perform classification&lt;br&gt;&lt;/b&gt;" style="rounded=1;whiteSpace=wrap;html=1;fillColor=#d5e8d4;strokeColor=#82b366;" vertex="1" parent="1">
          <mxGeometry x="240" y="560" width="160" height="40" as="geometry" />
        </mxCell>
        <mxCell id="9-J86cphxurWLW8eX2XV-26" value="" style="edgeStyle=orthogonalEdgeStyle;rounded=0;orthogonalLoop=1;jettySize=auto;html=1;" edge="1" parent="1" source="9-J86cphxurWLW8eX2XV-16" target="9-J86cphxurWLW8eX2XV-17">
          <mxGeometry relative="1" as="geometry" />
        </mxCell>
        <mxCell id="9-J86cphxurWLW8eX2XV-16" value="&lt;b&gt;Data post-processing&lt;br&gt;&lt;/b&gt;" style="rounded=1;whiteSpace=wrap;html=1;fillColor=#e1d5e7;strokeColor=#9673a6;" vertex="1" parent="1">
          <mxGeometry x="240" y="640" width="160" height="40" as="geometry" />
        </mxCell>
        <mxCell id="9-J86cphxurWLW8eX2XV-27" value="" style="edgeStyle=orthogonalEdgeStyle;rounded=0;orthogonalLoop=1;jettySize=auto;html=1;" edge="1" parent="1" source="9-J86cphxurWLW8eX2XV-17" target="9-J86cphxurWLW8eX2XV-18">
          <mxGeometry relative="1" as="geometry" />
        </mxCell>
        <mxCell id="9-J86cphxurWLW8eX2XV-17" value="&lt;b&gt;Train ensemble&lt;br&gt;&lt;/b&gt;" style="rounded=1;whiteSpace=wrap;html=1;fillColor=#dae8fc;strokeColor=#6c8ebf;" vertex="1" parent="1">
          <mxGeometry x="240" y="720" width="160" height="40" as="geometry" />
        </mxCell>
        <mxCell id="9-J86cphxurWLW8eX2XV-18" value="&lt;b&gt;Predict anomalies&lt;br&gt;&lt;/b&gt;" style="rounded=1;whiteSpace=wrap;html=1;fillColor=#d5e8d4;strokeColor=#82b366;" vertex="1" parent="1">
          <mxGeometry x="240" y="800" width="160" height="40" as="geometry" />
        </mxCell>
        <mxCell id="9-J86cphxurWLW8eX2XV-23" value="&lt;b&gt;Dynamic Active Learning: OCluDAL&lt;br&gt;&lt;/b&gt;" style="text;html=1;strokeColor=none;fillColor=none;align=center;verticalAlign=middle;whiteSpace=wrap;rounded=0;" vertex="1" parent="1">
          <mxGeometry x="80" y="365" width="120" height="30" as="geometry" />
        </mxCell>
        <mxCell id="9-J86cphxurWLW8eX2XV-24" value="" style="rounded=1;whiteSpace=wrap;html=1;fillColor=none;dashed=1;strokeWidth=2;" vertex="1" parent="1">
          <mxGeometry x="200" y="620" width="240" height="160" as="geometry" />
        </mxCell>
        <mxCell id="9-J86cphxurWLW8eX2XV-29" value="&lt;div&gt;&lt;b&gt;Anomaly Detection:&lt;/b&gt;&lt;b&gt; CNDE&lt;/b&gt;&lt;/div&gt;" style="text;html=1;strokeColor=none;fillColor=none;align=center;verticalAlign=middle;whiteSpace=wrap;rounded=0;" vertex="1" parent="1">
          <mxGeometry x="90" y="685" width="100" height="30" as="geometry" />
        </mxCell>
        <mxCell id="9-J86cphxurWLW8eX2XV-30" value="" style="rounded=1;whiteSpace=wrap;html=1;fillColor=none;dashed=1;strokeWidth=2;" vertex="1" parent="1">
          <mxGeometry x="200" y="220" width="240" height="320" as="geometry" />
        </mxCell>
      </root>
    </mxGraphModel>
  </diagram>
</mxfile>
